<?xml version="1.0" standalone="no"?><!DOCTYPE svg PUBLIC "-//W3C//DTD SVG 1.1//EN" "http://www.w3.org/Graphics/SVG/1.1/DTD/svg11.dtd"><svg t="1590650439382" class="icon" viewBox="0 0 1024 1024" version="1.1" xmlns="http://www.w3.org/2000/svg" p-id="3776" xmlns:xlink="http://www.w3.org/1999/xlink" width="300" height="300"><defs><style type="text/css"></style></defs><path d="M970.893617 427.414268h-62.478098a30.918648 30.918648 0 0 0 0 61.837296h62.478098a30.918648 30.918648 0 0 0 0-61.837296zM405.546934 290.923655H342.588235A30.918648 30.918648 0 0 0 342.588235 352.440551h62.317898a30.918648 30.918648 0 0 0 0-61.837297zM467.22403 567.108886H281.55194a30.918648 30.918648 0 0 0 0 61.837297h185.67209a30.918648 30.918648 0 0 0 0-61.837297zM961.922403 748.295369h-62.478098a30.918648 30.918648 0 0 0 0 61.837297h62.478098a30.918648 30.918648 0 1 0 0-61.837297zM961.922403 962.162703H792.590738a30.918648 30.918648 0 0 0 0 61.837297h169.331665a30.918648 30.918648 0 1 0 0-61.837297zM587.694618 962.162703h-62.478097a30.918648 30.918648 0 0 0 0 61.837297h62.478097a30.918648 30.918648 0 1 0 0-61.837297zM213.306633 962.162703H97.481852a30.918648 30.918648 0 1 0 0 61.837297h115.824781a30.918648 30.918648 0 0 0 0-61.837297z" p-id="3777"></path><path d="M839.209011 281.952441L593.461827 35.724656a123.834793 123.834793 0 0 0-174.137672 0L58.392991 396.81602a122.873592 122.873592 0 0 0 0 174.137672l247.509387 247.829787a121.43179 121.43179 0 0 0 86.347935 35.724656 123.354193 123.354193 0 0 0 87.789737-36.205256l244.145182-252.315395a84.425532 84.425532 0 0 0 8.811013-107.654568 87.309136 87.309136 0 0 0-71.769712-35.724656H135.929912a6.56821 6.56821 0 0 1-4.645807-11.214017L462.898623 80.100125a61.677096 61.677096 0 0 1 86.828536 0l247.509387 247.028786a30.758448 30.758448 0 0 0 42.613266 1.121402A32.04005 32.04005 0 0 0 839.209011 281.952441zM662.988736 484.445557a22.588235 22.588235 0 0 1 20.986233 13.777221 22.107635 22.107635 0 0 1-4.645808 24.510639L436.946183 774.56821a64.0801 64.0801 0 0 1-44.37547 18.102629 61.036295 61.036295 0 0 1-42.773466-17.622028L102.28786 527.219024a61.036295 61.036295 0 0 1-17.622028-37.486859 4.806008 4.806008 0 0 1 4.806008-5.286608H662.988736z" p-id="3778"></path></svg>