<?xml version="1.0" standalone="no"?><!DOCTYPE svg PUBLIC "-//W3C//DTD SVG 1.1//EN" "http://www.w3.org/Graphics/SVG/1.1/DTD/svg11.dtd"><svg t="1590650569774" class="icon" viewBox="0 0 1024 1024" version="1.1" xmlns="http://www.w3.org/2000/svg" p-id="4290" xmlns:xlink="http://www.w3.org/1999/xlink" width="300" height="300"><defs><style type="text/css"></style></defs><path d="M915.3 414.6H801C772.7 281 653.9 180.5 512 180.5S251.3 281 223 414.6H108.7c-27.1 0-45.3 27.8-34.5 52.6l154 353.7c6 13.7 19.5 22.6 34.5 22.6h498.6c15 0 28.5-8.9 34.5-22.6l154-353.7c10.8-24.8-7.4-52.6-34.5-52.6zM512 250.5c103 0 190.1 69.5 216.9 164.1H295.1C321.9 320 409 250.5 512 250.5zM362.7 724.7c-43.8 0-79.2-35.5-79.2-79.2s35.5-79.2 79.2-79.2c43.8 0 79.2 35.5 79.2 79.2s-35.5 79.2-79.2 79.2z m298.6-1.1c-43.8 0-79.2-35.5-79.2-79.2 0-43.8 35.5-79.2 79.2-79.2 43.8 0 79.2 35.5 79.2 79.2 0.1 43.7-35.4 79.2-79.2 79.2z" p-id="4291"></path></svg>