<?xml version="1.0" standalone="no"?><!DOCTYPE svg PUBLIC "-//W3C//DTD SVG 1.1//EN" "http://www.w3.org/Graphics/SVG/1.1/DTD/svg11.dtd"><svg t="1590651567969" class="icon" viewBox="0 0 1024 1024" version="1.1" xmlns="http://www.w3.org/2000/svg" p-id="17080" xmlns:xlink="http://www.w3.org/1999/xlink" width="350" height="350"><defs><style type="text/css"></style></defs><path d="M470.016 681.984l0-128-427.989333 0 0-84.010667 427.989333 0 0-128 169.984 169.984zM896 128q34.005333 0 59.989333 25.002667t25.984 61.013333l0 598.016q0 34.005333-25.984 59.008t-59.989333 25.002667l-768 0q-34.005333 0-59.989333-25.002667t-25.984-59.008l0-171.989333 86.016 0 0 171.989333 768 0 0-600.021333-768 0 0 171.989333-86.016 0 0-169.984q0-34.005333 25.984-59.989333t59.989333-25.984l768 0z" p-id="17081"></path></svg>