<?xml version="1.0" standalone="no"?><!DOCTYPE svg PUBLIC "-//W3C//DTD SVG 1.1//EN" "http://www.w3.org/Graphics/SVG/1.1/DTD/svg11.dtd"><svg t="1590581049627" class="icon" viewBox="0 0 1024 1024" version="1.1" xmlns="http://www.w3.org/2000/svg" p-id="4053" xmlns:xlink="http://www.w3.org/1999/xlink" width="128" height="128"><defs><style type="text/css"></style></defs><path d="M785 450.9V418c0-72.7-28.2-141.1-79.9-192.8C653.4 173.5 585 145 512.4 145s-141.3 28.5-193 80.2C267.7 276.9 239 345.3 239 418v33.2c-22.5 15.5-37 41.5-37 70.8v266c0 47.4 38.3 86 85.7 86h449c47.4 0 86.3-38.6 86.3-86V522c0-29.5-15.3-55.6-38-71.1zM512 217c110.8 0 201 90.2 201 201v18H311v-18c0-110.8 90.2-201 201-201z m239 571c0 7.7-6.3 14-14 14H288c-7.7 0-14-6.3-14-14V522c0-7.7 6.3-14 14-14h449c7.7 0 14 6.3 14 14v266z" p-id="4054"></path><path d="M513 712c-19.9 0-36-16.1-36-36v-69c0-19.9 16.1-36 36-36s36 16.1 36 36v69c0 19.9-16.1 36-36 36z" p-id="4055"></path></svg>