<?xml version="1.0" standalone="no"?><!DOCTYPE svg PUBLIC "-//W3C//DTD SVG 1.1//EN" "http://www.w3.org/Graphics/SVG/1.1/DTD/svg11.dtd"><svg t="1590652143004" class="icon" viewBox="0 0 1024 1024" version="1.1" xmlns="http://www.w3.org/2000/svg" p-id="21975" xmlns:xlink="http://www.w3.org/1999/xlink" width="350" height="350"><defs><style type="text/css"></style></defs><path d="M501.3 923.8c-105.4 0-204.8-12.7-279.8-35.8C138.1 862.3 94 826.6 94 784.6c0-42 44.1-77.7 127.6-103.4 75-23.1 174.4-35.8 279.8-35.8s204.7 12.7 279.8 35.8c83.4 25.7 127.6 61.5 127.6 103.4 0 42-44.1 77.7-127.6 103.4-75.2 23.1-174.5 35.8-279.9 35.8z m0-238.5c-101.5 0-196.7 12.1-268 34-33 10.2-59.7 22.2-77.1 35-10.1 7.4-22.2 18.6-22.2 30.2 0 11.6 12.1 22.9 22.2 30.2 17.5 12.7 44.1 24.8 77.1 35 71.3 22 166.5 34 268 34s196.7-12.1 268-34c33-10.2 59.7-22.2 77.1-35 10.1-7.4 22.2-18.6 22.2-30.2 0-11.6-12.1-22.9-22.2-30.2-17.5-12.7-44.1-24.8-77.1-35-71.3-21.9-166.5-34-268-34z" fill="#cdcdcd" p-id="21976"></path><path d="M501.3 833.2c-61 0-118.7-8.1-162.4-22.7-64.7-21.7-78.3-50.7-78.3-71.3s13.6-49.6 78.3-71.3c43.7-14.6 101.3-22.7 162.4-22.7S620 653.4 663.7 668c64.7 21.7 78.3 50.7 78.3 71.3s-13.6 49.6-78.3 71.3c-43.7 14.6-101.4 22.6-162.4 22.6z m0-147.9c-56.8 0-110 7.3-149.7 20.6-37.4 12.5-51 26.8-51 33.3s13.6 20.8 51 33.3c39.7 13.3 92.8 20.6 149.7 20.6s110-7.3 149.7-20.6c37.4-12.5 51-26.8 51-33.3s-13.6-20.8-51-33.3c-39.7-13.2-92.9-20.6-149.7-20.6z" fill="#cdcdcd" p-id="21977"></path><path d="M498.4 756.6c-0.4-1.7-10.7-41.4-14.9-97.9-3.9-52.5-3-130 23.4-201 28.2-75.7 83.5-149 85.8-152l31.9 24.2c-0.5 0.7-54.1 71.7-80.2 141.8-23.8 64-24.6 135-21.1 183.3 3.9 53.1 13.6 91.3 13.7 91.6l-38.6 10z" fill="#cdcdcd" p-id="21978"></path><path d="M702.2 373c-14.8 0-30.5-2.9-46.7-8.6-33.9-11.9-59.2-32.4-60.3-33.3-4.7-3.8-7.4-9.5-7.3-15.5 0-4.1 0.9-101.8 75-147 61.5-37.6 152.2-26.1 269.4 34.2 7 3.6 11.2 11 10.8 18.8-0.4 7.9-5.4 14.7-12.7 17.6-0.9 0.4-91.9 36.6-153.4 101.3-17.4 18.3-38.4 29-62.4 31.7-3.9 0.5-8.1 0.8-12.4 0.8z m-73.6-67.1c8.7 5.9 23.7 15 41.1 21 33.1 11.4 58.7 6.8 78.5-14 41.3-43.4 93.1-74.6 128.1-92.6-41.8-18.4-79.1-29.3-111.3-32.4-32.7-3.1-60 1.9-81.3 14.8-43.4 26.7-53 81.1-55.1 103.2zM355 466.9c-10 0-19.5-1.6-28.5-4.8-24.8-8.7-44.7-30-53.2-56.9-18.5-58.2-88.7-80.2-89.4-80.5-8.2-2.5-13.9-10-14.2-18.6-0.2-8.6 5.1-16.4 13.2-19.3 87.7-31.7 155.8-30.6 202.5 3.1 61.6 44.5 60.1 127.9 60 131.4-0.2 6.5-3.5 12.5-8.9 16.1-29.5 19.6-56.8 29.5-81.5 29.5zM244.4 310.1c25.7 16.7 54.5 43.3 67.1 83 1.8 5.6 9.1 24.4 28.4 31.3 16.8 5.9 39.2 1 65.2-14.3-1.7-19.8-9.3-63.6-43.2-87.8-27.4-19.7-66.8-23.7-117.5-12.2z" fill="#cdcdcd" p-id="21979"></path><path d="M487.7 536.3c-7.5-93.5-75.6-103-76.3-103.1l4.9-39.7c2.7 0.3 27.2 3.8 53 22.9 23.7 17.5 53.1 52 58.3 116.7l-39.9 3.2z" fill="#cdcdcd" p-id="21980"></path></svg>