<?xml version="1.0" standalone="no"?><!DOCTYPE svg PUBLIC "-//W3C//DTD SVG 1.1//EN" "http://www.w3.org/Graphics/SVG/1.1/DTD/svg11.dtd"><svg t="1590652219175" class="icon" viewBox="0 0 1024 1024" version="1.1" xmlns="http://www.w3.org/2000/svg" p-id="23003" xmlns:xlink="http://www.w3.org/1999/xlink" width="350" height="350"><defs><style type="text/css"></style></defs><path d="M151.510204 532.897959a20.897959 20.897959 0 0 1-20.897959-20.897959V397.061224a20.897959 20.897959 0 0 1 20.897959-20.897959h720.979592a20.897959 20.897959 0 0 1 20.897959 20.897959v104.489796a20.897959 20.897959 0 0 1-41.795918 0v-83.591836h-679.183674v94.040816a20.897959 20.897959 0 0 1-20.897959 20.897959zM841.142857 303.020408h-658.285714a20.897959 20.897959 0 0 1-20.897959-20.897959V104.489796a20.897959 20.897959 0 0 1 20.897959-20.897959h658.285714a20.897959 20.897959 0 0 1 20.897959 20.897959v177.632653a20.897959 20.897959 0 0 1-20.897959 20.897959z m-637.387755-41.795918h616.489796V125.387755h-616.489796z" p-id="23004" fill="#cdcdcd"></path><path d="M694.857143 167.183673m20.897959 0l20.897959 0q20.897959 0 20.897959 20.89796l0 20.897959q0 20.897959-20.897959 20.897959l-20.897959 0q-20.897959 0-20.897959-20.897959l0-20.897959q0-20.897959 20.897959-20.89796Z" p-id="23005" fill="#cdcdcd"></path><path d="M517.22449 532.897959a20.897959 20.897959 0 0 1-20.897959-20.897959V282.122449a20.897959 20.897959 0 0 1 41.795918 0v229.877551a20.897959 20.897959 0 0 1-20.897959 20.897959zM710.530612 522.44898a20.897959 20.897959 0 0 1-20.897959-20.89796v-94.040816a20.897959 20.897959 0 0 1 41.795918 0v94.040816a20.897959 20.897959 0 0 1-20.897959 20.89796zM334.367347 940.408163H62.693878a20.897959 20.897959 0 0 1-20.89796-20.897959V512a20.897959 20.897959 0 0 1 20.89796-20.897959h271.673469a20.897959 20.897959 0 0 1 20.897959 20.897959v407.510204a20.897959 20.897959 0 0 1-20.897959 20.897959zM83.591837 898.612245h229.877551V532.897959H83.591837z" p-id="23006" fill="#cdcdcd"></path><path d="M762.77551 940.408163H647.836735a20.897959 20.897959 0 0 1-20.897959-20.897959V512a20.897959 20.897959 0 0 1 20.897959-20.897959h114.938775a20.897959 20.897959 0 0 1 20.897959 20.897959v407.510204a20.897959 20.897959 0 0 1-20.897959 20.897959z m-94.040816-41.795918h73.142857V532.897959h-73.142857zM564.244898 940.408163H417.959184a20.897959 20.897959 0 0 1-20.89796-20.897959V512a20.897959 20.897959 0 0 1 20.89796-20.897959h146.285714a20.897959 20.897959 0 0 1 20.897959 20.897959v407.510204a20.897959 20.897959 0 0 1-20.897959 20.897959z m-125.387755-41.795918h104.489796V532.897959H438.857143zM961.306122 940.408163H846.367347a20.897959 20.897959 0 0 1-20.897959-20.897959V512a20.897959 20.897959 0 0 1 20.897959-20.897959h114.938775a20.897959 20.897959 0 0 1 20.89796 20.897959v407.510204a20.897959 20.897959 0 0 1-20.89796 20.897959z m-94.040816-41.795918h73.142857V532.897959h-73.142857zM198.530612 940.408163a20.897959 20.897959 0 0 1-20.897959-20.897959v-52.244898a20.897959 20.897959 0 0 1 41.795918 0v52.244898a20.897959 20.897959 0 0 1-20.897959 20.897959z" p-id="23007" fill="#cdcdcd"></path><path d="M491.102041 940.408163a20.897959 20.897959 0 0 1-20.897959-20.897959v-52.244898a20.897959 20.897959 0 0 1 41.795918 0v52.244898a20.897959 20.897959 0 0 1-20.897959 20.897959z" p-id="23008" fill="#cdcdcd"></path></svg>