<?xml version="1.0" standalone="no"?><!DOCTYPE svg PUBLIC "-//W3C//DTD SVG 1.1//EN" "http://www.w3.org/Graphics/SVG/1.1/DTD/svg11.dtd"><svg t="1590650518996" class="icon" viewBox="0 0 1024 1024" version="1.1" xmlns="http://www.w3.org/2000/svg" p-id="4145" xmlns:xlink="http://www.w3.org/1999/xlink" width="300" height="300"><defs><style type="text/css"></style></defs><path d="M818.804364 797.021091l-42.286546-18.618182a451.723636 451.723636 0 0 0 35.141818-176.128c0-206.638545-134.423273-374.690909-299.659636-374.690909a261.376 261.376 0 0 0-184.459636 79.546182L295.517091 273.291636a310.248727 310.248727 0 0 1 216.436364-92.695272c190.650182 0 345.762909 189.137455 345.762909 421.608727a499.479273 499.479273 0 0 1-38.912 194.816zM419.816727 230.213818H373.713455V204.032c0-90.391273 62.045091-163.956364 138.309818-163.956364s138.309818 73.565091 138.309818 163.956364v23.412364h-46.126546V204.032c0-64.581818-41.355636-117.108364-92.206545-117.108364S419.793455 139.473455 419.793455 204.032v26.181818z m9.309091-124.136727l-71.68-72.820364 32.581818-33.117091 71.68 72.820364z m165.934546 0l-32.581819-33.117091 71.68-72.820364 32.581819 33.117091z m-59.997091 917.76h-46.103273v-398.196364h46.103273v398.196364z m0-504.552727h-46.103273V227.444364h46.103273v291.84z m246.690909-134.725819L749.335273 351.418182l115.246545-117.108364 32.581818 33.117091zM511.953455 1023.837091c-190.650182 0-345.762909-189.137455-345.76291-421.608727a486.097455 486.097455 0 0 1 58.670546-235.194182l-97.954909-99.607273 32.581818-33.117091 123.508364 125.509818-9.541819 15.755637a436.386909 436.386909 0 0 0-61.114181 226.629818c0 206.638545 134.423273 374.690909 299.659636 374.690909a271.383273 271.383273 0 0 0 212.154182-110.266182l35.816727 29.509818A316.253091 316.253091 0 0 1 511.953455 1023.837091zM159.488 970.123636l-32.581818-33.117091 115.246545-117.108363 32.581818 33.117091z m813.521455-344.436363h-138.286546V578.792727h138.309818v46.848z m-783.732364 0H50.990545V578.792727h138.309819v46.848z m767.464727 367.848727L34.699636 56.622545l32.581819-33.11709 922.042181 936.913454z" p-id="4146"></path></svg>