<?xml version="1.0" standalone="no"?><!DOCTYPE svg PUBLIC "-//W3C//DTD SVG 1.1//EN" "http://www.w3.org/Graphics/SVG/1.1/DTD/svg11.dtd"><svg t="1590650268531" class="icon" viewBox="0 0 1024 1024" version="1.1" xmlns="http://www.w3.org/2000/svg" p-id="3031" xmlns:xlink="http://www.w3.org/1999/xlink" width="300" height="300"><defs><style type="text/css"></style></defs><path d="M342.646154 228.430769h340.676923c17.723077 0 31.507692-13.784615 31.507692-31.507692V133.907692c0-51.2-41.353846-94.523077-92.553846-94.523077h-216.615385c-51.2 0-92.553846 43.323077-92.553846 94.523077V196.923077c-1.969231 17.723077 11.815385 31.507692 29.538462 31.507692zM852.676923 118.153846h-31.507692c-9.846154 0-15.753846 5.907692-15.753846 15.753846V196.923077c0 68.923077-55.138462 126.030769-124.061539 126.030769H342.646154c-68.923077 0-124.061538-57.107692-124.061539-126.030769V133.907692c0-9.846154-5.907692-15.753846-15.753846-15.753846H171.323077C120.123077 118.153846 78.769231 161.476923 78.769231 212.676923v677.415385C78.769231 941.292308 120.123077 984.615385 171.323077 984.615385h681.353846c51.2 0 92.553846-43.323077 92.553846-94.523077V212.676923C945.230769 161.476923 903.876923 118.153846 852.676923 118.153846zM342.646154 795.569231c0 17.723077-13.784615 31.507692-31.507692 31.507692h-31.507693c-17.723077 0-31.507692-13.784615-31.507692-31.507692v-31.507693c0-17.723077 13.784615-31.507692 31.507692-31.507692h31.507693c17.723077 0 31.507692 13.784615 31.507692 31.507692v31.507693z m0-157.538462c0 17.723077-13.784615 31.507692-31.507692 31.507693h-31.507693c-17.723077 0-31.507692-13.784615-31.507692-31.507693v-31.507692c0-17.723077 13.784615-31.507692 31.507692-31.507692h31.507693c17.723077 0 31.507692 13.784615 31.507692 31.507692v31.507692z m0-157.538461c0 17.723077-13.784615 31.507692-31.507692 31.507692h-31.507693c-17.723077 0-31.507692-13.784615-31.507692-31.507692v-31.507693c0-17.723077 13.784615-31.507692 31.507692-31.507692h31.507693c17.723077 0 31.507692 13.784615 31.507692 31.507692v31.507693z m433.230769 315.076923c0 17.723077-13.784615 31.507692-31.507692 31.507692H435.2c-17.723077 0-31.507692-13.784615-31.507692-31.507692v-31.507693c0-17.723077 13.784615-31.507692 31.507692-31.507692h309.169231c17.723077 0 31.507692 13.784615 31.507692 31.507692v31.507693z m0-157.538462c0 17.723077-13.784615 31.507692-31.507692 31.507693H435.2c-17.723077 0-31.507692-13.784615-31.507692-31.507693v-31.507692c0-17.723077 13.784615-31.507692 31.507692-31.507692h309.169231c17.723077 0 31.507692 13.784615 31.507692 31.507692v31.507692z m0-157.538461c0 17.723077-13.784615 31.507692-31.507692 31.507692H435.2c-17.723077 0-31.507692-13.784615-31.507692-31.507692v-31.507693c0-17.723077 13.784615-31.507692 31.507692-31.507692h309.169231c17.723077 0 31.507692 13.784615 31.507692 31.507692v31.507693z" p-id="3032"></path></svg>