<?xml version="1.0" standalone="no"?><!DOCTYPE svg PUBLIC "-//W3C//DTD SVG 1.1//EN" "http://www.w3.org/Graphics/SVG/1.1/DTD/svg11.dtd"><svg t="1590653054108" class="icon" viewBox="0 0 1024 1024" version="1.1" xmlns="http://www.w3.org/2000/svg" p-id="28755" xmlns:xlink="http://www.w3.org/1999/xlink" width="350" height="350"><defs><style type="text/css"></style></defs><path d="M957 512c0 104.9-36.3 201.3-97 277.3l-35.6-35.6c20.9-26.9 38.2-56.4 51.5-88 20.6-48.7 31-100.4 31-153.7s-10.4-105.1-31-153.7c-13.4-31.6-30.6-61.1-51.5-88l35.6-35.6c60.7 76 97 172.4 97 277.3zM234.7 164l35.6 35.6c26.9-20.9 56.4-38.2 88-51.5 48.7-20.6 100.4-31 153.7-31s105.1 10.4 153.7 31c31.6 13.4 61.1 30.6 88 51.5l35.6-35.6c-76-60.7-172.4-97-277.3-97s-201.3 36.3-277.3 97z m-35.1 106.3L164 234.7c-60.7 76-97 172.4-97 277.3s36.3 201.3 97 277.3l35.6-35.6c-20.9-26.9-38.2-56.4-51.5-88-20.6-48.7-31-100.4-31-153.7s10.4-105.1 31-153.7c13.3-31.6 30.6-61.1 51.5-88zM665.7 876C617 896.6 565.3 907 512 907s-105.1-10.4-153.7-31c-31.6-13.4-61.1-30.6-88-51.5L234.7 860c76.1 60.7 172.5 97 277.3 97s201.3-36.3 277.3-97l-35.6-35.6c-26.9 20.9-56.4 38.2-88 51.6zM512 742c-127 0-230-103-230-230s103-230 230-230 230 103 230 230-103 230-230 230zM384.7 639.3c34 34 79.2 52.7 127.3 52.7s93.3-18.7 127.3-52.7S692 560.1 692 512s-18.7-93.3-52.7-127.3S560.1 332 512 332s-93.3 18.7-127.3 52.7S332 463.9 332 512s18.7 93.3 52.7 127.3z" p-id="28756" fill="#cdcdcd"></path></svg>